<svg xmlns="http://www.w3.org/2000/svg" width="285" height="215" viewBox="0 0 285 215">
    <g fill="none" fill-rule="evenodd" transform="translate(18 12)">
        <path fill="#EDF3F4" fill-rule="nonzero" d="M103.52 51c60 7.11 78.83-73.33 123.25-13.09 43.22 58.62-58.62 190.68-175 127.76C-1.7 136.73 13.52 40.3 103.52 51z"/>
        <path fill="#000" fill-rule="nonzero" d="M134 153.17c-4.874 11.18-16.921 17.407-28.86 14.918-11.94-2.49-20.495-13.012-20.495-25.208 0-12.196 8.556-22.719 20.495-25.208 11.939-2.49 23.986 3.738 28.86 14.918l20.6-6.11c-7.941-21.382-30.057-34.006-52.506-29.972-22.45 4.034-38.786 23.568-38.786 46.377s16.337 42.343 38.786 46.377c22.45 4.034 44.565-8.59 52.506-29.972l-20.6-6.12z"/>
        <path fill="#FFF" fill-rule="nonzero" d="M185.9 76.42l27.42-20.58s-13.75-6.08-14.56-15L186 45.78l-8.57 5.16-3.29 10.59 11.76 14.89z"/>
        <path fill="#78EACC" fill-rule="nonzero" d="M235.28 57.89a13.6 13.6 0 0 0-7.6-1.67 143.61 143.61 0 0 1-14.36-.38c-11.91 6.63-27.42 20.58-27.42 20.58s-13.23-17.81-6.52-25.36c-8.14-2-7.16-3.64-12.7-3.8-1.94.26-3.903.47-5.89.63-4.79 1.32-9 4.8-13.47 11.89-8.94 14.3 13.16 73.6 26.27 105.74.75-.18 1.5-.39 2.25-.58 41.57-24.87 66.62-71.52 59.44-107.05z"/>
        <path fill="#000" fill-rule="nonzero" d="M153.4 111.15l-2.74-10.51S162.77 110 166 128.7c.4 2.33 4.87 8.59.29 18.43l-1.58-4.62c1.74-.46.14-20.07-11.31-31.36z" opacity=".2"/>
        <path fill="#FFF" fill-rule="nonzero" d="M163.65 128.7s1.27 4 2 7.34a15.14 15.14 0 0 1-8.56 17 1.12 1.12 0 0 1-1.56-.79l-3.88-18.06 12-5.49z"/>
        <path fill="#78EACC" fill-rule="nonzero" d="M156.58 49.72L107 80.15c-4.08 2.37-3.15 13.13.84 15.67 20.84 13.3 26.36 17.13 39.5 42.33l17.5-8.84s-9.21-24.9-26-37.12L159 85l-2.42-35.28z"/>
        <path fill="#FFF" fill-rule="nonzero" d="M187.21 9.63C165.16 4.5 163 56.54 179.34 53.69c47.66-8.3 33.09-38.19 7.87-44.06z"/>
        <path fill="#000" fill-rule="nonzero" d="M194.2 33.57s3-4.3 5.28-1.71c2.28 2.59 2.43 8.18-.72 9-3.15.82 1 8.33 1 8.33s23.05-8.42 17.15-26.45C209-1.37 171.53-6.57 170.49 8.4c-.84 11.97 18.79 10.12 23.71 25.17z"/>
        <path fill="#000" fill-rule="nonzero" d="M196 49s-4.16 9-18.22 10.83a11.51 11.51 0 0 1 .05-6A65 65 0 0 0 196 49zM138.9 92.19a79.63 79.63 0 0 0-6.9-4.58s6.09.37 9.73 3.57l-2.83 1.01z" opacity=".2"/>
        <path fill="#000" fill-rule="nonzero" d="M173.68 15.75a3.09 3.09 0 0 0 1.86 4.82 37.9 37.9 0 0 1 16.06 7.91s-4.98-9.38-17.92-12.73z" opacity=".1"/>
        <path fill="#C1D4D9" fill-rule="nonzero" d="M57.25 160.16c-1.9-20.48-7.8-36.42-14.51-47.31l-7.54 2.35 3.1-8.71a44.33 44.33 0 0 0-5.46-5.81 14.85 14.85 0 0 0-6.35-3.24L22.34 105l-.4-7.92a14.45 14.45 0 0 0-6.34 2.08C7 104.46 2.7 114.41.63 121.25a14.94 14.94 0 0 0-.4 6.89l10.53.11-9.11 4.06a14.16 14.16 0 0 0 2.8 3.69c4 3.83 9.56 7.3 15.53 10.34l9.84-.62-.82 4.82a222.65 222.65 0 0 0 28.25 9.62z"/>
        <path stroke="#AEC8CE" stroke-linecap="round" d="M57.25 160.16A172.38 172.38 0 0 0 9.43 112.8"/>
        <path fill="#000" fill-rule="nonzero" d="M50.58 126l2.21-7a30 30 0 0 0-2-4.42A9.65 9.65 0 0 0 40.27 110c-6.47 1.49-11.28 6.8-14 10.64a9.58 9.58 0 0 0-.73 10 41.77 41.77 0 0 0 6.57 8.75l7.42.74-3.53 3.14a143.49 143.49 0 0 0 17.5 13.65c3.11-13.12 2.8-24.27.94-32.48L50.58 126z" opacity=".14"/>
        <path fill="#C1D4D9" fill-rule="nonzero" d="M55.78 125.9l3.34-6.5a29.61 29.61 0 0 0-1.29-4.7 9.66 9.66 0 0 0-9.57-6.25c-6.63.4-12.25 4.83-15.59 8.17a9.63 9.63 0 0 0-2.39 9.79 42 42 0 0 0 5 9.71l7.19 2-4 2.46a144.29 144.29 0 0 0 15 16.37c5.25-12.42 6.8-23.46 6.33-31.87l-4.02.82z"/>
        <path stroke="#AEC8CE" stroke-linecap="round" d="M53.47 156.92a113.83 113.83 0 0 0-13-42.48"/>
        <path fill="#FFF" fill-rule="nonzero" d="M67 170.52c-8.38-1.77-26.56-10-14.67-22 5.81-5.83 14-2.19 19.53 2.82 11.24 10.19 6.07 21.47-4.86 19.18z"/>
        <circle cx="57.93" cy="30.3" r="14" fill="#C1D4D9" fill-rule="nonzero"/>
        <circle cx="57.93" cy="30.3" r="11.05" stroke="#FFF" stroke-width=".75" opacity=".4"/>
        <path fill="#FFF" fill-rule="nonzero" d="M54.13 30.8l3-6.48 4.59 5.49-3.52 2.67z" opacity=".4"/>
        <path fill="#FFF" fill-rule="nonzero" d="M57.14 24.32l4.59 5.49-3.52 2.67z" opacity=".5"/>
        <path fill="#FFF" fill-rule="nonzero" d="M54.23 31.61l4.09 1.68 3.51-2.67-3.12 5.66z" opacity=".4"/>
        <path fill="#FFF" fill-rule="nonzero" d="M58.32 33.29l3.51-2.67-3.12 5.66z" opacity=".5"/>
        <ellipse cx="101.986" cy="54.136" fill="#C1D4D9" fill-rule="nonzero" rx="15" ry="14.99" transform="rotate(-29.78 101.986 54.136)"/>
        <circle cx="102.376" cy="53.908" r="11.881" stroke="#FFF" stroke-width=".753" opacity=".4" transform="rotate(-29.887 102.376 53.908)"/>
        <path fill="#FFF" fill-rule="nonzero" d="M106.07 51.63c-.07-1.4-1.25-1.92-2.76-2.13l.08-1.93h-1.17l-.09 1.88h-.94l.09-1.89-1.18-.06-.1 1.85h-.75l-1.62-.07-.06 1.25h.85a.62.62 0 0 1 .66.55l-.1 2.2-.14 3.08a.41.41 0 0 1-.46.37h-.85l-.3 1.39 1.53.07h.84l-.09 2 1.18.06.09-1.94.93.06-.08 1.92h1.17l.09-2c2 0 3.39-.45 3.65-2.3a2 2 0 0 0-1.54-2.43 1.83 1.83 0 0 0 1.1-1.93h-.03zm-1.84 4.1c-.06 1.46-2.55 1.18-3.35 1.14l.12-2.59c.79 0 3.3-.07 3.23 1.45zm-.38-3.68c-.06 1.33-2.14 1.08-2.8 1.05l.11-2.35c.66.03 2.76-.08 2.69 1.3z" opacity=".6"/>
        <path fill="#C1D4D9" fill-rule="nonzero" d="M40.59 56.34L28 80.71c16.36 5.66 27.54 12.19 38.58 23l13.21-20.29c-10.01-11.71-24.34-22.6-39.2-27.08z"/>
        <g stroke="#FFF" stroke-linecap="round" stroke-width="1.5" opacity=".5">
            <path d="M52.29 74.55l7.28 4.03M50.65 77.5l7.28 4.04M62.2 75.4a5.29 5.29 0 0 0-1.51-1.25 6.2 6.2 0 0 0-6 10.83 5.52 5.52 0 0 0 1.86.62"/>
        </g>
        <path fill="#EDF3F4" fill-rule="nonzero" d="M245.2 39.77c-3.93 3.37-8.27 1.56-11.63-2.37-3.36-3.93-4.5-8.5-.57-11.87a9.38 9.38 0 0 1 12.2 14.24zM240.45 9.27c.91 2.17-.47 3.79-2.64 4.7-2.17.91-4.3.77-5.21-1.4a4.26 4.26 0 1 1 7.85-3.3z"/>
        <path stroke="#FFF" stroke-width=".75" d="M42.36 59.57L31.84 79.51C46 84.4 55.63 90 65.16 99.38L76.22 83c-8.65-10.16-21.03-19.56-33.86-23.43z" opacity=".4"/>
    </g>
</svg>
