<svg xmlns="http://www.w3.org/2000/svg" width="285" height="215" viewBox="0 0 285 215">
    <defs>
        <linearGradient id="a" x1="87.447%" x2="13.717%" y1="16.869%" y2="81.841%">
            <stop offset="0%"/>
            <stop offset="8%" stop-color="#0E0E0E"/>
            <stop offset="22%" stop-color="#222"/>
            <stop offset="37%" stop-color="#2F2F2F"/>
            <stop offset="51%" stop-color="#333"/>
            <stop offset="65%" stop-color="#2F2F2F"/>
            <stop offset="78%" stop-color="#242424"/>
            <stop offset="91%" stop-color="#111"/>
            <stop offset="100%"/>
        </linearGradient>
        <linearGradient id="b" x1="6%" x2="93.137%" y1="70.975%" y2="27.684%">
            <stop offset="0%" stop-color="#1A1A1A"/>
            <stop offset="44%" stop-color="#4D4D4D"/>
            <stop offset="94%" stop-color="#221F20"/>
            <stop offset="100%" stop-color="#221F20"/>
        </linearGradient>
    </defs>
    <g fill="none" fill-rule="evenodd" transform="translate(30 20)">
        <path fill="#EDF3F4" fill-rule="nonzero" d="M189.43 135.46c-1.94 1.55-4 .61-5.54-1.33s-2-4.15-.08-5.7a4.5 4.5 0 1 1 5.62 7v.03z"/>
        <path fill="#EDF3F4" fill-rule="nonzero" d="M3.72 80.13C-22.17 168.09 144.34 194 178 155c25.67-29.6-60.75-32-59.8-57.58 1.25-33.45 117.61-.55 106.18-39.19-8.75-29.59-192.03-75.37-220.66 21.9z"/>
        <circle cx="16.97" cy="75.73" r="15" fill="#C1D4D9" fill-rule="nonzero"/>
        <circle cx="16.97" cy="75.73" r="11.84" stroke="#FFF" stroke-width=".75" opacity=".4"/>
        <path fill="#000" fill-rule="nonzero" d="M49.3 114.35s-28-3.95-26.66-34.83c1.87-42.19 47.86-33.65 55-58C88.72-16.77 130 5.9 131.6 15c7.53 42.66-30.72 113.92-82.3 99.35z"/>
        <path fill="#FFF" fill-rule="nonzero" d="M111 56.09s-1.75 9.06 8.27 5.91l5.53 8.47-9.38 18L91.08 83l-4.14-24.53s7.55 3.89 9.23-.15c2.52-6.09-1-14.06-1-14.06"/>
        <path fill="#FFF" fill-rule="nonzero" d="M126.38 19.34c5.41 10.64-2.8 48.33-23.15 35.7-9.37-5.82-9.82-16.52-9.06-26 0-.32 6.65 2.28 8.77.1 3.32-3.4 5.83-2 8.64-2.88 12.19-3.87 15.42-5.01 14.8-6.92z"/>
        <circle cx="173.97" cy="35.73" r="15" fill="#C1D4D9" fill-rule="nonzero"/>
        <circle cx="173.97" cy="35.73" r="11.84" stroke="#FFF" stroke-width=".75" opacity=".4"/>
        <path fill="#000" fill-rule="nonzero" d="M81.94 48.54C98.48 46.29 98.83 31 98.83 31l-12.77-8.11-14.31 16.19 10.19 9.46z"/>
        <path fill="#000" fill-rule="nonzero" d="M89.87 31.77c21.09 10.63 41.92-14.3 41.92-14.3S130.47 17 113.91 24s-24.04 7.77-24.04 7.77z" opacity=".1"/>
        <path fill="#000" fill-rule="nonzero" d="M89 28.81c25.71 9.29 42.82-11.34 42.82-11.34s-1.28-.58-18.29 5.29C96.52 28.63 89 28.81 89 28.81z"/>
        <path fill="#78EACC" fill-rule="nonzero" d="M119.31 62s-.57 16.6-14.31 18.78C91.08 83 98.62 53.84 81.3 56.3 67 58.33 59.17 60 52.65 85c-4.34 16.66-3.1 28.84-1.6 35.78 1.06 5 5.17 8.52 10 10.15l-6.68 17.11s10 25.16 52.55 20.74c0 0 31.6-19.88 32.25-92 .07-11.6-9.71-18.46-19.86-14.78z"/>
        <rect width="110" height="68.28" x="101.972" y="58.118" fill="#000" fill-rule="nonzero" rx="7" transform="rotate(-26.47 156.972 92.258)"/>
        <path fill="url(#a)" fill-rule="nonzero" d="M117.27 74.6a36.91 36.91 0 0 0-3.14 38.78c6.65 13.14 18.62 21.29 32.47 21.47l34.55-17.21c7.38-10.28 5.93-21 5.6-24.42l-15.17 1.86c2.19 16.64-9.55 21.54-13.77 23.61-9 4.43-23.69 2.37-29.79-12-4.88-11.46-5.48-23.78 9.81-31.85 6.88-3.63 17.95-5.23 25 4.08l10.66-10.05c-2.86-3.66-11.28-10.39-23.57-10.56L117.27 74.6z"/>
        <path stroke="url(#b)" stroke-width=".5" d="M117.27 74.6a36.91 36.91 0 0 0-3.14 38.78c6.65 13.14 18.62 21.29 32.47 21.47l34.55-17.21c7.38-10.28 5.93-21 5.6-24.42l-15.17 1.86c2.19 16.64-9.55 21.54-13.77 23.61-9 4.43-23.69 2.37-29.79-12-4.88-11.46-5.48-23.78 9.81-31.85 6.88-3.63 17.95-5.23 25 4.08l10.66-10.05c-2.86-3.66-11.28-10.39-23.57-10.56L117.27 74.6z"/>
        <path fill="#FFF" fill-rule="nonzero" d="M197.58 96l.44 6.76-1.53.76-3.37-3.89a.69.69 0 0 0-.59-.32 6.59 6.59 0 0 0-1.66.23l-.05-.18 2.46-1.22a.74.74 0 0 1 .95.24l2.22 2.93-.39-4.56 1.52-.75zm7.87.78c-.73-1.48-2.82-.54-3.13-1.21-.1-.2 0-.51.38-.77a3 3 0 0 1 1.55-.46l-.34-1.34a4 4 0 0 0-1.47.42c-1.43.71-2.06 2-1.53 3.07a2 2 0 0 0 2 .89c.7 0 1 .07 1.09.32.09.25-.18.77-.59 1a3.42 3.42 0 0 1-1.66.39l.35 1.35a4.92 4.92 0 0 0 1.75-.5c1.52-.76 2.14-2 1.57-3.17l.03.01zm4.65-.06l1.34-.67-3.95-5-1.23.61a.75.75 0 0 0-.42.72l.41 6.26 1.52-.75-.11-1 1.85-.92.59.75zm-2.6-1.18l-.28-2.48 1.51 1.94-1.23.54zm-7.85-.54l1.59 6.19-1.45.72-1.59-6.21 1.45-.7zM189.39 57.37c-.6 0-.7-.43-.69-1a10.24 10.24 0 0 0-4.44-8.9c-.47-.34-.61-.69-.24-1.18a.89.89 0 0 1 1.23.05 12.63 12.63 0 0 1 3.73 4.3 11.87 11.87 0 0 1 1.24 5.21c0 .43-.22 1.54-.83 1.51M179.24 52.93c.25-.55.62-.61 1.22-.21a3.76 3.76 0 0 1 1.79 3.49c0 .76-.28 1-.89.93-.09 0-.56-.17-.56-.62a3.44 3.44 0 0 0-.11-1.74 4.53 4.53 0 0 0-1.33-1.14.54.54 0 0 1-.12-.71"/>
        <path fill="#FFF" fill-rule="nonzero" d="M186.57 52.22a8.89 8.89 0 0 1 .83 4.11c0 .49-.13.91-.68.91s-.67-.41-.66-.91a7.67 7.67 0 0 0-3.31-6.68c-.39-.28-.7-.6-.37-1.06.33-.46.76-.31 1.18 0a9.53 9.53 0 0 1 3 3.64M184.09 53.15a6.73 6.73 0 0 1 .66 3.28c0 .46-.24.78-.7.77-.46-.01-.67-.34-.64-.8a5.08 5.08 0 0 0-2.33-4.69c-.38-.26-.55-.6-.26-1 .29-.4.65-.36 1-.1a6.72 6.72 0 0 1 2.23 2.53M160.06 116.12s9.73-2.32 13.11-5.73a.7.7 0 0 1 1.22.41c.15 2-1.87 5.27-7.11 7.08 0 0 2.87.7 7 1.25a17.79 17.79 0 0 0 5.72-.31.18.18 0 0 1 .16.22c-2.51 8.958-11.673 14.311-20.71 12.1l-5.76-1.41 6.37-13.61z"/>
        <path fill="#000" fill-rule="nonzero" d="M107.46 57.15c1.33.33-2.73-1-4.23-1.91a19.27 19.27 0 0 1-8.27-11s0 3.81-1.79 6.13a38.67 38.67 0 0 0 14.29 6.78z" opacity=".2"/>
        <path fill="#78EACC" fill-rule="nonzero" d="M77.08 80.05s-.17 31.43-7.11 35.78c-6.94 4.35-18.92 5-18.92 5 4.24 23.89 93.07 13.36 101.41 11.95 5.57-.95 9.48-13.42 9.8-16.29.13-1.2 0-2.54-1.17-2.63l-83.19-6.4c2.66-17.36-.82-27.41-.82-27.41"/>
        <path fill="#000" fill-rule="nonzero" d="M102.72 106.69c-12.94.06-21-2.7-21-2.7.26-16.32-4.6-23.94-4.6-23.94s4.54 16.84.82 27.41l26.23 2.07-1.45-2.84z" opacity=".2"/>
        <path fill="#EDF3F4" fill-rule="nonzero" d="M142 13.78a3 3 0 0 1 2.13 3.67c-.42 1.6-1.81 1.59-3.41 1.17-1.6-.42-2.81-1.1-2.39-2.7a3 3 0 0 1 3.67-2.14z"/>
        <path fill="#000" fill-rule="nonzero" d="M118 137.29s-21.29 4.77-58.47-2.44L61 131s20.42 8.93 57 4.93v1.36z" opacity=".2"/>
        <path fill="#C1D4D9" fill-rule="nonzero" d="M83.19 140.29l3.93-.53-5.07-3.36a56.37 56.37 0 0 1-1.56-14.61v-.85a109.49 109.49 0 0 1 25.42 19.44l-.52 8.24 4.55-4a100.44 100.44 0 0 1 17.8 27.92s-34.52-2.93-44.55-32.25z"/>
        <path stroke="#AEC8CE" d="M126.3 171.16s-25.16-16-43.82-47"/>
        <path fill="#000" fill-rule="nonzero" d="M127.76 172.59c-.05-.13-.11-.25-.16-.38a267.76 267.76 0 0 0-21-24.65l-1.23 1.06.14-2.15c-2-2-4.06-4-6.18-5.88L89 140.14l2.16-6.34c-3.34-2.56-6.86-5-10.6-7.34a53.37 53.37 0 0 0 1.46 9.94l5.07 3.36-3.93.53c10.06 29.32 44.6 32.3 44.6 32.3z" opacity=".14"/>
        <path fill="#C1D4D9" fill-rule="nonzero" d="M86.23 143.81l1.57-6.51a140.75 140.75 0 0 0-35.73-16l-1.26 8.1-5-9.83a228.76 228.76 0 0 0-28.37-5.28 151.63 151.63 0 0 0 8.41 13.13l7.92-2.14-4.2 7.09a120.51 120.51 0 0 0 15.21 16.09l.13-8.42 3.73 11.66a101.32 101.32 0 0 0 37 18.82l-2.13-6.31 8.01 7.79c20.88 4.32 36.44.69 36.44.69-10.2-11-20-20.92-31.39-29.36l-10.34.48z"/>
        <path stroke="#AEC8CE" d="M123.91 170.55S65.32 139.91 21 116.37"/>
        <circle cx="146.97" cy="159.73" r="15" fill="#C1D4D9" fill-rule="nonzero"/>
        <circle cx="146.97" cy="159.73" r="11.84" stroke="#FFF" stroke-width=".75" opacity=".4"/>
        <rect width="5" height="18" x="101.62" y="87.938" fill="#C1D4D9" fill-rule="nonzero" rx="2.5" transform="rotate(-26.02 104.12 96.938)"/>
        <rect width="5" height="18" x="101.602" y="87.92" fill="#EDF3F4" fill-rule="nonzero" rx="2.5" transform="rotate(63.98 104.102 96.92)"/>
    </g>
</svg>
