<svg xmlns="http://www.w3.org/2000/svg" width="185" height="120" viewBox="0 0 185 120">
    <g fill="none" fill-rule="evenodd" transform="translate(11 7)">
        <path fill="#EDF3F4" fill-rule="nonzero" d="M29.64 22C75.33-33.8 132.5 36.7 144.5 17.7s23.85-3.79 16 21C122.84 157.48-34.16 99.86 29.64 22z"/>
        <path fill="#78EACC" fill-rule="nonzero" d="M104.88 64.51c-4.874 11.186-16.926 17.417-28.871 14.928-11.945-2.49-20.505-13.017-20.505-25.218s8.56-22.729 20.505-25.218c11.945-2.49 23.997 3.742 28.871 14.928l20.6-6.12C117.539 16.428 95.423 3.804 72.974 7.838c-22.45 4.034-38.786 23.568-38.786 46.377s16.337 42.343 38.786 46.377c22.45 4.034 44.565-8.59 52.506-29.972l-20.6-6.11z"/>
        <circle cx="81.36" cy="54.76" r="16.5" fill="#FFF" fill-rule="nonzero" stroke="#C1D4D9"/>
        <path stroke="#78EACC" stroke-linecap="round" stroke-width="2" d="M85.73 51.52l-4.92 6.11a1 1 0 0 1-1.4.15L77 55.86"/>
        <path fill="#C1D4D9" fill-rule="nonzero" d="M36.43 92s19-37.83-6.85-65c0 0 12.52 26.72 6.85 65z"/>
        <path fill="#000" fill-rule="nonzero" d="M37.5 61.76a134.74 134.74 0 0 1-.76 27.95v1.6c.38-.81 1-2.33 1.81-4.41 1.36-6.64 2.45-16.76-1.05-25.14z" opacity=".14"/>
        <path fill="#C1D4D9" fill-rule="nonzero" d="M36.7 94s9.22-36-15.6-43.34C21.1 50.64 35.59 69 36.7 94z"/>
        <path stroke="#AEC8CE" stroke-linecap="round" stroke-width=".25" d="M36.38 89.77S49.5 58 31.83 31"/>
        <path fill="#000" fill-rule="nonzero" d="M40.78 97S29.65 61.55 54.05 52.88c0 0-13.49 19.12-13.27 44.12z" opacity=".14"/>
        <path fill="#C1D4D9" fill-rule="nonzero" d="M40.78 97s-9.23-36 15.59-43.36c0 0-14.48 18.36-15.59 43.36z"/>
        <path stroke="#AEC8CE" stroke-linecap="round" stroke-width=".25" d="M36.7 93.49s5.14-28.37-13.61-41.39M40.78 96.49S35.64 68.12 54.39 55.1M40.14 83.77s1-9.69 8.86-15M39.1 85.36s2.34-22.4-8-35.21M36.74 83.77S38 74.23 27 69.15M41.07 83.77s1.12-5.85 6.19-7.24"/>
        <path fill="#000" fill-rule="nonzero" d="M50 101.36H29.37a1 1 0 0 1-1-.87l-2.71-19.58a1 1 0 0 1 1-1.14h26a1 1 0 0 1 1 1.14L51 100.49a1 1 0 0 1-1 .87z"/>
        <path fill="#FFF" fill-rule="nonzero" d="M55.48 90.89c2.69-.74 11.91-3.57 12.24 5.56.19 5-8.07 7.22-14 6.51-14.95-1.77-8.08-9.32 1.76-12.07z"/>
        <path fill="#EDF3F4" fill-rule="nonzero" d="M137.54 14.25c-1.83 2.42-4.68 2.1-7.1.27s-3.51-4.48-1.67-6.91a5.5 5.5 0 1 1 8.77 6.64z"/>
        <circle cx="13.5" cy="29.23" r="3.5" fill="#EDF3F4" fill-rule="nonzero"/>
        <circle cx="7.5" cy="44.23" r="2.5" fill="#EDF3F4" fill-rule="nonzero"/>
        <circle cx="1.5" cy="34.23" r="1.5" fill="#EDF3F4" fill-rule="nonzero"/>
        <circle cx="10.5" cy="58.23" r="1.5" fill="#EDF3F4" fill-rule="nonzero"/>
    </g>
</svg>
