<svg xmlns="http://www.w3.org/2000/svg" width="24" height="24" viewBox="0 0 24 24">
    <g fill="#000" fill-rule="evenodd">
        <path d="M12 24C5.371 24 0 18.629 0 12S5.371 0 12 0s12 5.371 12 12-5.371 12-12 12zm5.996-11.836L12.375 3 6.75 12.164l5.625 3.266 5.621-3.266zM18 13.211l-5.625 3.266-5.625-3.266 5.625 7.785L18 13.211z"/>
        <path fill-opacity=".298" d="M12.375 3v6.652l5.621 2.512L12.375 3zm0 13.477v4.519L18 13.211l-5.625 3.266z"/>
        <path fill-opacity=".801" d="M12.375 15.43l5.621-3.266-5.621-2.512z"/>
        <path fill-opacity=".298" d="M6.75 12.164l5.625 3.266V9.652z"/>
    </g>
</svg>
