<svg xmlns="http://www.w3.org/2000/svg" width="24" height="24" viewBox="0 0 24 24">
    <g fill="none" fill-rule="evenodd" transform="translate(0 -.5)">
        <circle cx="12" cy="13" r="11.25" fill="#000"/>
        <path fill="#FFF" d="M19.185 14.96v1.701c0 .57-.45 1.031-1.006 1.031H5.94a1.018 1.018 0 0 1-1.006-1.031v-1.7l14.25-.002zm-1.006-7.018c.556 0 1.006.462 1.006 1.031v4.955l-14.25.001V8.973c0-.569.45-1.03 1.006-1.03zm-1.41 1.411h-1.526a.769.769 0 0 0-.763.774c0 .427.342.773.763.773h1.527a.769.769 0 0 0 .763-.773.769.769 0 0 0-.763-.774z"/>
    </g>
</svg>
