<svg xmlns="http://www.w3.org/2000/svg" width="32" height="32" viewBox="0 0 32 32">
    <g fill="#FFF" fill-rule="nonzero" stroke="#FFF">
        <path d="M24.308 11.552a.44.44 0 0 0 .449-.43.44.44 0 0 0-.449-.431H9.043l2.683-2.576a.418.418 0 0 0 0-.609.458.458 0 0 0-.63 0L7.65 10.813a.427.427 0 0 0 0 .606l3.444 3.306a.458.458 0 0 0 .63 0 .415.415 0 0 0 0-.605l-2.682-2.575h15.265v.007zM20.547 17.16a.415.415 0 0 0 0 .606l2.682 2.576H7.964a.44.44 0 0 0-.448.43c0 .238.2.43.448.43h15.265l-2.682 2.572a.415.415 0 0 0 0 .606.458.458 0 0 0 .63 0l3.445-3.307a.418.418 0 0 0 0-.609l-3.445-3.307a.468.468 0 0 0-.63.004z"/>
    </g>
</svg>
